<svg xmlns="http://www.w3.org/2000/svg" xmlns:xlink="http://www.w3.org/1999/xlink" xmlns:lucid="lucid" width="1760" height="1360"><g transform="translate(0 0)" lucid:page-tab-id="0_0"><path d="M0 0h1760v1360H0z" fill="#fff"/><path d="M453.15 76c0-4.42 3.58-8 8-8h836.75c4.4 0 8 3.58 8 8v25.16c0 4.4-3.6 8-8 8H461.15c-4.42 0-8-3.6-8-8z" stroke="#000" stroke-opacity="0" stroke-width="2" fill="#fff" fill-opacity="0"/><use xlink:href="#a" transform="matrix(1,0,0,1,457.1465527853429,71.99999999994924) translate(220.3661728395062 25.782777777777778)"/><use xlink:href="#b" transform="matrix(1,0,0,1,457.1465527853429,71.99999999994924) translate(277.03530864197535 25.782777777777778)"/><use xlink:href="#c" transform="matrix(1,0,0,1,457.1465527853429,71.99999999994924) translate(503.201975308642 25.782777777777778)"/><path d="M592.73 107.8H1174M592.76 107.8h-1.03M1173.97 107.8h1.03" stroke="#a9afb8" stroke-width="2" fill="none"/><path d="M453.15 117.16c0-4.42 3.58-8 8-8h837.7c4.42 0 8 3.58 8 8V120c0 4.42-3.58 8-8 8h-837.7c-4.42 0-8-3.58-8-8z" stroke="#000" stroke-opacity="0" stroke-width="2" fill="#fff" fill-opacity="0"/><use xlink:href="#d" transform="matrix(1,0,0,1,457.1465527853434,113.15522395684805) translate(276.1726028806585 14.917037037037037)"/><use xlink:href="#e" transform="matrix(1,0,0,1,457.1465527853434,113.15522395684805) translate(333.916121399177 14.917037037037037)"/><use xlink:href="#f" transform="matrix(1,0,0,1,457.1465527853434,113.15522395684805) translate(429.8578909465021 14.917037037037037)"/><use xlink:href="#g" transform="matrix(1,0,0,1,457.1465527853434,113.15522395684805) translate(442.3073765432099 14.917037037037037)"/><use xlink:href="#h" transform="matrix(1,0,0,1,457.1465527853434,113.15522395684805) translate(516.9618004115226 14.917037037037037)"/><use xlink:href="#i" transform="matrix(1,0,0,1,457.1465527853434,113.15522395684805) translate(542.4556275720165 14.917037037037037)"/><path d="M480 268c0-4.42 3.58-8 8-8h304c4.42 0 8 3.58 8 8v344c0 4.42-3.58 8-8 8H488c-4.42 0-8-3.58-8-8z" fill="#fff"/><path d="M480 260h320v40H480z" fill="#ccc"/><path d="M480 268c0-4.42 3.58-8 8-8h304c4.42 0 8 3.58 8 8v344c0 4.42-3.58 8-8 8H488c-4.42 0-8-3.58-8-8zM480 300h320M540 300v320M670 300v320" stroke="#333" fill="none"/><use xlink:href="#j" transform="matrix(1,0,0,1,490,260) translate(112.07499999999999 23.6)"/><use xlink:href="#k" transform="matrix(1,0,0,1,485,302.5) translate(12.524999999999999 17.1)"/><use xlink:href="#l" transform="matrix(1,0,0,1,545,302.5) translate(6.099999999999994 17.1)"/><use xlink:href="#m" transform="matrix(1,0,0,1,545,302.5) translate(95.95 17.1)"/><use xlink:href="#n" transform="matrix(1,0,0,1,675,302.5) translate(27.074999999999996 17.1)"/><use xlink:href="#o" transform="matrix(1,0,0,1,545,334.5) translate(37.525 17.1)"/><use xlink:href="#p" transform="matrix(1,0,0,1,675,334.5) translate(45.5 17.1)"/><use xlink:href="#q" transform="matrix(1,0,0,1,545,366.5) translate(12.574999999999996 17.1)"/><use xlink:href="#r" transform="matrix(1,0,0,1,545,366.5) translate(46.525 17.1)"/><use xlink:href="#s" transform="matrix(1,0,0,1,675,366.5) translate(29.549999999999997 17.1)"/><use xlink:href="#t" transform="matrix(1,0,0,1,545,398.5) translate(4.574999999999996 17.1)"/><use xlink:href="#r" transform="matrix(1,0,0,1,545,398.5) translate(54.525 17.1)"/><use xlink:href="#s" transform="matrix(1,0,0,1,675,398.5) translate(29.549999999999997 17.1)"/><use xlink:href="#t" transform="matrix(1,0,0,1,545,430.5) translate(12.549999999999997 17.1)"/><use xlink:href="#u" transform="matrix(1,0,0,1,545,430.5) translate(62.5 17.1)"/><use xlink:href="#p" transform="matrix(1,0,0,1,675,430.5) translate(45.5 17.1)"/><use xlink:href="#v" transform="matrix(1,0,0,1,545,462.5) translate(32.525 17.1)"/><use xlink:href="#p" transform="matrix(1,0,0,1,675,462.5) translate(45.5 17.1)"/><use xlink:href="#w" transform="matrix(1,0,0,1,545,494.5) translate(46.525 17.1)"/><use xlink:href="#p" transform="matrix(1,0,0,1,675,494.5) translate(45.5 17.1)"/><use xlink:href="#x" transform="matrix(1,0,0,1,545,526.5) translate(40.5 17.1)"/><use xlink:href="#p" transform="matrix(1,0,0,1,675,526.5) translate(45.5 17.1)"/><use xlink:href="#y" transform="matrix(1,0,0,1,545,558.5) translate(40.5 17.1)"/><use xlink:href="#p" transform="matrix(1,0,0,1,675,558.5) translate(45.5 17.1)"/><use xlink:href="#z" transform="matrix(1,0,0,1,545,590.5) translate(30.525 17.1)"/><use xlink:href="#p" transform="matrix(1,0,0,1,675,590.5) translate(45.5 17.1)"/><path d="M1030 256c0-4.42 3.58-8 8-8h324c4.42 0 8 3.58 8 8v152c0 4.42-3.58 8-8 8h-324c-4.42 0-8-3.58-8-8z" fill="#fff"/><path d="M1030 248h340v40h-340z" fill="#ccc"/><path d="M1030 256c0-4.42 3.58-8 8-8h324c4.42 0 8 3.58 8 8v152c0 4.42-3.58 8-8 8h-324c-4.42 0-8-3.58-8-8zM1030 288h340M1090 288v128M1230 288v128" stroke="#333" fill="none"/><use xlink:href="#A" transform="matrix(1,0,0,1,1040,248) translate(131.525 23.6)"/><use xlink:href="#k" transform="matrix(1,0,0,1,1035,290.5) translate(12.524999999999999 17.1)"/><use xlink:href="#B" transform="matrix(1,0,0,1,1095,290.5) translate(22.099999999999994 17.1)"/><use xlink:href="#m" transform="matrix(1,0,0,1,1095,290.5) translate(89.95 17.1)"/><use xlink:href="#n" transform="matrix(1,0,0,1,1235,290.5) translate(32.074999999999996 17.1)"/><use xlink:href="#C" transform="matrix(1,0,0,1,1095,322.5) translate(11.549999999999997 17.1)"/><use xlink:href="#u" transform="matrix(1,0,0,1,1095,322.5) translate(73.5 17.1)"/><use xlink:href="#D" transform="matrix(1,0,0,1,1235,322.5) translate(50.5 17.1)"/><use xlink:href="#E" transform="matrix(1,0,0,1,1095,354.5) translate(30.525 17.1)"/><use xlink:href="#D" transform="matrix(1,0,0,1,1235,354.5) translate(50.5 17.1)"/><use xlink:href="#F" transform="matrix(1,0,0,1,1095,386.5) translate(10.524999999999999 17.1)"/><use xlink:href="#u" transform="matrix(1,0,0,1,1095,386.5) translate(74.525 17.1)"/><use xlink:href="#p" transform="matrix(1,0,0,1,1235,386.5) translate(50.5 17.1)"/><path d="M480 742.06c0-4.4 3.58-8 8-8h310.85c4.42 0 8 3.6 8 8v408c0 4.42-3.58 8-8 8H488c-4.42 0-8-3.58-8-8z" fill="#fff"/><path d="M480 734.06h326.85v40H480z" fill="#ccc"/><path d="M480 742.06c0-4.4 3.58-8 8-8h310.85c4.42 0 8 3.6 8 8v408c0 4.42-3.58 8-8 8H488c-4.42 0-8-3.58-8-8zM480 774.06h326.85M540 774.06v384M673.43 774.06v384" stroke="#333" fill="none"/><use xlink:href="#G" transform="matrix(1,0,0,1,490,734.063913817557) translate(124 23.6)"/><use xlink:href="#k" transform="matrix(1,0,0,1,485,776.563913817557) translate(12.524999999999999 17.1)"/><use xlink:href="#H" transform="matrix(1,0,0,1,545,776.563913817557) translate(18.15 17.1)"/><use xlink:href="#m" transform="matrix(1,0,0,1,545,776.563913817557) translate(87.9 17.1)"/><use xlink:href="#n" transform="matrix(1,0,0,1,678.4267236073285,776.563913817557) translate(29.074999999999996 17.1)"/><use xlink:href="#I" transform="matrix(1,0,0,1,545,808.563913817557) translate(22.575000000000003 17.1)"/><use xlink:href="#u" transform="matrix(1,0,0,1,545,808.563913817557) translate(56.475 17.1)"/><use xlink:href="#D" transform="matrix(1,0,0,1,678.4267236073285,808.563913817557) translate(47.5 17.1)"/><use xlink:href="#J" transform="matrix(1,0,0,1,545,840.563913817557) translate(23.049999999999997 17.1)"/><use xlink:href="#u" transform="matrix(1,0,0,1,545,840.563913817557) translate(56 17.1)"/><use xlink:href="#p" transform="matrix(1,0,0,1,678.4267236073285,840.563913817557) translate(47.5 17.1)"/><use xlink:href="#K" transform="matrix(1,0,0,1,545,872.563913817557) translate(14.549999999999997 17.1)"/><use xlink:href="#L" transform="matrix(1,0,0,1,545,872.563913817557) translate(54.55 17.1)"/><use xlink:href="#M" transform="matrix(1,0,0,1,545,872.563913817557) translate(74.55 17.1)"/><use xlink:href="#N" transform="matrix(1,0,0,1,678.4267236073285,872.563913817557) translate(44.5 17.1)"/><use xlink:href="#q" transform="matrix(1,0,0,1,545,904.563913817557) translate(14.574999999999996 17.1)"/><use xlink:href="#r" transform="matrix(1,0,0,1,545,904.563913817557) translate(48.525 17.1)"/><use xlink:href="#s" transform="matrix(1,0,0,1,678.4267236073285,904.563913817557) translate(31.549999999999997 17.1)"/><use xlink:href="#t" transform="matrix(1,0,0,1,545,936.563913817557) translate(6.574999999999996 17.1)"/><use xlink:href="#r" transform="matrix(1,0,0,1,545,936.563913817557) translate(56.525 17.1)"/><use xlink:href="#s" transform="matrix(1,0,0,1,678.4267236073285,936.563913817557) translate(31.549999999999997 17.1)"/><use xlink:href="#t" transform="matrix(1,0,0,1,545,968.563913817557) translate(14.549999999999997 17.1)"/><use xlink:href="#u" transform="matrix(1,0,0,1,545,968.563913817557) translate(64.5 17.1)"/><use xlink:href="#p" transform="matrix(1,0,0,1,678.4267236073285,968.563913817557) translate(47.5 17.1)"/><use xlink:href="#v" transform="matrix(1,0,0,1,545,1000.563913817557) translate(34.525 17.1)"/><use xlink:href="#p" transform="matrix(1,0,0,1,678.4267236073285,1000.563913817557) translate(47.5 17.1)"/><use xlink:href="#w" transform="matrix(1,0,0,1,545,1032.563913817557) translate(48.525 17.1)"/><use xlink:href="#p" transform="matrix(1,0,0,1,678.4267236073285,1032.563913817557) translate(47.5 17.1)"/><use xlink:href="#x" transform="matrix(1,0,0,1,545,1064.563913817557) translate(42.5 17.1)"/><use xlink:href="#p" transform="matrix(1,0,0,1,678.4267236073285,1064.563913817557) translate(47.5 17.1)"/><use xlink:href="#y" transform="matrix(1,0,0,1,545,1096.563913817557) translate(42.5 17.1)"/><use xlink:href="#p" transform="matrix(1,0,0,1,678.4267236073285,1096.563913817557) translate(47.5 17.1)"/><use xlink:href="#z" transform="matrix(1,0,0,1,545,1128.563913817557) translate(32.525 17.1)"/><use xlink:href="#p" transform="matrix(1,0,0,1,678.4267236073285,1128.563913817557) translate(47.5 17.1)"/><path d="M1040 710.06c0-4.4 3.58-8 8-8h384c4.42 0 8 3.6 8 8v440c0 4.42-3.58 8-8 8h-384c-4.42 0-8-3.58-8-8z" fill="#fff"/><path d="M1040 702.06h400v40h-400z" fill="#ccc"/><path d="M1040 710.06c0-4.4 3.58-8 8-8h384c4.42 0 8 3.6 8 8v440c0 4.42-3.58 8-8 8h-384c-4.42 0-8-3.58-8-8zM1040 742.06h400M1100 742.06v416M1270 742.06v416" stroke="#333" fill="none"/><use xlink:href="#O" transform="matrix(1,0,0,1,1050,702.0639138175569) translate(160.025 23.6)"/><use xlink:href="#k" transform="matrix(1,0,0,1,1045,744.5639138175569) translate(12.524999999999999 17.1)"/><use xlink:href="#P" transform="matrix(1,0,0,1,1105,744.5639138175569) translate(36.574999999999996 17.1)"/><use xlink:href="#m" transform="matrix(1,0,0,1,1105,744.5639138175569) translate(105.475 17.1)"/><use xlink:href="#n" transform="matrix(1,0,0,1,1275,744.5639138175569) translate(47.074999999999996 17.1)"/><use xlink:href="#I" transform="matrix(1,0,0,1,1105,776.5639138175569) translate(40.575 17.1)"/><use xlink:href="#u" transform="matrix(1,0,0,1,1105,776.5639138175569) translate(74.475 17.1)"/><g><use xlink:href="#D" transform="matrix(1,0,0,1,1275,776.5639138175569) translate(65.5 17.1)"/></g><g><use xlink:href="#J" transform="matrix(1,0,0,1,1105,808.5639138175569) translate(41.05 17.1)"/><use xlink:href="#u" transform="matrix(1,0,0,1,1105,808.5639138175569) translate(74 17.1)"/></g><g><use xlink:href="#p" transform="matrix(1,0,0,1,1275,808.5639138175569) translate(65.5 17.1)"/></g><g><use xlink:href="#K" transform="matrix(1,0,0,1,1105,840.5639138175569) translate(32.55 17.1)"/><use xlink:href="#L" transform="matrix(1,0,0,1,1105,840.5639138175569) translate(72.55 17.1)"/><use xlink:href="#M" transform="matrix(1,0,0,1,1105,840.5639138175569) translate(92.55 17.1)"/></g><g><use xlink:href="#N" transform="matrix(1,0,0,1,1275,840.5639138175569) translate(62.5 17.1)"/></g><g><use xlink:href="#C" transform="matrix(1,0,0,1,1105,872.5639138175569) translate(24.025 17.1)"/><use xlink:href="#Q" transform="matrix(1,0,0,1,1105,872.5639138175569) translate(85.975 17.1)"/></g><g><use xlink:href="#D" transform="matrix(1,0,0,1,1275,872.5639138175569) translate(65.5 17.1)"/></g><g><use xlink:href="#q" transform="matrix(1,0,0,1,1105,904.5639138175569) translate(32.574999999999996 17.1)"/><use xlink:href="#r" transform="matrix(1,0,0,1,1105,904.5639138175569) translate(66.525 17.1)"/></g><g><use xlink:href="#s" transform="matrix(1,0,0,1,1275,904.5639138175569) translate(49.55 17.1)"/></g><g><use xlink:href="#t" transform="matrix(1,0,0,1,1105,936.5639138175569) translate(24.574999999999996 17.1)"/><use xlink:href="#r" transform="matrix(1,0,0,1,1105,936.5639138175569) translate(74.525 17.1)"/></g><g><use xlink:href="#s" transform="matrix(1,0,0,1,1275,936.5639138175569) translate(49.55 17.1)"/></g><g><use xlink:href="#t" transform="matrix(1,0,0,1,1105,968.5639138175569) translate(32.55 17.1)"/><use xlink:href="#u" transform="matrix(1,0,0,1,1105,968.5639138175569) translate(82.5 17.1)"/></g><g><use xlink:href="#p" transform="matrix(1,0,0,1,1275,968.5639138175569) translate(65.5 17.1)"/></g><g><use xlink:href="#v" transform="matrix(1,0,0,1,1105,1000.5639138175569) translate(52.525 17.1)"/></g><g><use xlink:href="#p" transform="matrix(1,0,0,1,1275,1000.5639138175569) translate(65.5 17.1)"/></g><g><use xlink:href="#w" transform="matrix(1,0,0,1,1105,1032.563913817557) translate(66.525 17.1)"/></g><g><use xlink:href="#p" transform="matrix(1,0,0,1,1275,1032.563913817557) translate(65.5 17.1)"/></g><g><use xlink:href="#x" transform="matrix(1,0,0,1,1105,1064.563913817557) translate(60.5 17.1)"/></g><g><use xlink:href="#p" transform="matrix(1,0,0,1,1275,1064.563913817557) translate(65.5 17.1)"/></g><g><use xlink:href="#y" transform="matrix(1,0,0,1,1105,1096.563913817557) translate(60.5 17.1)"/></g><g><use xlink:href="#p" transform="matrix(1,0,0,1,1275,1096.563913817557) translate(65.5 17.1)"/></g><g><use xlink:href="#z" transform="matrix(1,0,0,1,1105,1128.563913817557) translate(50.525 17.1)"/></g><g><use xlink:href="#p" transform="matrix(1,0,0,1,1275,1128.563913817557) translate(65.5 17.1)"/></g><defs><path fill="#a9afb8" d="M23 0v-37h61v-169l-59 37v-38l62-41h46v211h57V0H23" id="R"/><path fill="#a9afb8" d="M175 0L67-191c6 58 2 128 3 191H24v-248h59L193-55c-6-58-2-129-3-193h46V0h-61" id="S"/><path fill="#a9afb8" d="M76-208v77h127v40H76V0H24v-248h183v40H76" id="T"/><g id="a"><use transform="matrix(0.0728395061728395,0,0,0.0728395061728395,0,0)" xlink:href="#R"/><use transform="matrix(0.0728395061728395,0,0,0.0728395061728395,14.5679012345679,0)" xlink:href="#S"/><use transform="matrix(0.0728395061728395,0,0,0.0728395061728395,33.43333333333333,0)" xlink:href="#T"/></g><path fill="#a9afb8" d="M140-251c80 0 125 45 125 126S219 4 139 4C58 4 15-44 15-125s44-126 125-126zm-1 214c52 0 73-35 73-88 0-50-21-86-72-86-52 0-73 35-73 86s22 88 72 88" id="U"/><path fill="#a9afb8" d="M240-174c0 40-23 61-54 70L253 0h-59l-57-94H76V0H24v-248c93 4 217-23 216 74zM76-134c48-2 112 12 112-38 0-48-66-32-112-35v73" id="V"/><path fill="#a9afb8" d="M230 0l2-204L168 0h-37L68-204 70 0H24v-248h70l56 185 57-185h69V0h-46" id="W"/><path fill="#a9afb8" d="M199 0l-22-63H83L61 0H9l90-248h61L250 0h-51zm-33-102l-36-108c-10 38-24 72-36 108h72" id="X"/><path fill="#a9afb8" d="M24 0v-248h52v208h133V0H24" id="Y"/><path fill="#a9afb8" d="M24 0v-248h52V0H24" id="Z"/><path fill="#a9afb8" d="M169-182c-1-43-94-46-97-3 18 66 151 10 154 114 3 95-165 93-204 36-6-8-10-19-12-30l50-8c3 46 112 56 116 5-17-69-150-10-154-114-4-87 153-88 188-35 5 8 8 18 10 28" id="aa"/><path fill="#a9afb8" d="M136-208V0H84v-208H4v-40h212v40h-80" id="ab"/><g id="b"><use transform="matrix(0.0728395061728395,0,0,0.0728395061728395,0,0)" xlink:href="#S"/><use transform="matrix(0.0728395061728395,0,0,0.0728395061728395,18.86543209876543,0)" xlink:href="#U"/><use transform="matrix(0.0728395061728395,0,0,0.0728395061728395,39.26049382716049,0)" xlink:href="#V"/><use transform="matrix(0.0728395061728395,0,0,0.0728395061728395,58.12592592592592,0)" xlink:href="#W"/><use transform="matrix(0.0728395061728395,0,0,0.0728395061728395,79.90493827160493,0)" xlink:href="#X"/><use transform="matrix(0.0728395061728395,0,0,0.0728395061728395,98.77037037037036,0)" xlink:href="#Y"/><use transform="matrix(0.0728395061728395,0,0,0.0728395061728395,114.72222222222221,0)" xlink:href="#Z"/><use transform="matrix(0.0728395061728395,0,0,0.0728395061728395,122.00617283950618,0)" xlink:href="#aa"/><use transform="matrix(0.0728395061728395,0,0,0.0728395061728395,139.48765432098764,0)" xlink:href="#X"/><use transform="matrix(0.0728395061728395,0,0,0.0728395061728395,156.38641975308641,0)" xlink:href="#ab"/><use transform="matrix(0.0728395061728395,0,0,0.0728395061728395,172.33827160493826,0)" xlink:href="#Z"/><use transform="matrix(0.0728395061728395,0,0,0.0728395061728395,179.6222222222222,0)" xlink:href="#U"/><use transform="matrix(0.0728395061728395,0,0,0.0728395061728395,200.01728395061727,0)" xlink:href="#S"/></g><path fill="#a9afb8" d="M24-248c93 1 206-16 204 79-1 75-69 88-152 82V0H24v-248zm52 121c47 0 100 7 100-41 0-47-54-39-100-39v80" id="ac"/><path fill="#a9afb8" d="M67-125c0 53 21 87 73 88 37 1 54-22 65-47l45 17C233-25 199 4 140 4 58 4 20-42 15-125 8-235 124-281 211-232c18 10 29 29 36 50l-46 12c-8-25-30-41-62-41-52 0-71 34-72 86" id="ad"/><path fill="#a9afb8" d="M24 0v-248h195v40H76v63h132v40H76v65h150V0H24" id="ae"/><g id="c"><use transform="matrix(0.0728395061728395,0,0,0.0728395061728395,0,0)" xlink:href="#ac"/><use transform="matrix(0.0728395061728395,0,0,0.0728395061728395,17.48148148148148,0)" xlink:href="#V"/><use transform="matrix(0.0728395061728395,0,0,0.0728395061728395,36.34691358024691,0)" xlink:href="#U"/><use transform="matrix(0.0728395061728395,0,0,0.0728395061728395,56.74197530864197,0)" xlink:href="#ad"/><use transform="matrix(0.0728395061728395,0,0,0.0728395061728395,75.60740740740741,0)" xlink:href="#ae"/><use transform="matrix(0.0728395061728395,0,0,0.0728395061728395,93.08888888888889,0)" xlink:href="#aa"/><use transform="matrix(0.0728395061728395,0,0,0.0728395061728395,110.57037037037037,0)" xlink:href="#aa"/></g><path fill="#a9afb8" d="M233-177c-1 41-23 64-60 70L243 0h-38l-65-103H63V0H30v-248c88 3 205-21 203 71zM63-129c60-2 137 13 137-47 0-61-80-42-137-45v92" id="af"/><path fill="#a9afb8" d="M100-194c62-1 85 37 85 99 1 63-27 99-86 99S16-35 15-95c0-66 28-99 85-99zM99-20c44 1 53-31 53-75 0-43-8-75-51-75s-53 32-53 75 10 74 51 75" id="ag"/><path fill="#a9afb8" d="M115-194c53 0 69 39 70 98 0 66-23 100-70 100C84 3 66-7 56-30L54 0H23l1-261h32v101c10-23 28-34 59-34zm-8 174c40 0 45-34 45-75 0-40-5-75-45-74-42 0-51 32-51 76 0 43 10 73 51 73" id="ah"/><path fill="#a9afb8" d="M100-194c63 0 86 42 84 106H49c0 40 14 67 53 68 26 1 43-12 49-29l28 8c-11 28-37 45-77 45C44 4 14-33 15-96c1-61 26-98 85-98zm52 81c6-60-76-77-97-28-3 7-6 17-6 28h103" id="ai"/><path fill="#a9afb8" d="M117-194c89-4 53 116 60 194h-32v-121c0-31-8-49-39-48C34-167 62-67 57 0H25l-1-190h30c1 10-1 24 2 32 11-22 29-35 61-36" id="aj"/><g id="d"><use transform="matrix(0.04248971193415638,0,0,0.04248971193415638,0,0)" xlink:href="#af"/><use transform="matrix(0.04248971193415638,0,0,0.04248971193415638,11.004835390946502,0)" xlink:href="#ag"/><use transform="matrix(0.04248971193415638,0,0,0.04248971193415638,19.502777777777776,0)" xlink:href="#ag"/><use transform="matrix(0.04248971193415638,0,0,0.04248971193415638,28.000720164609046,0)" xlink:href="#ah"/><use transform="matrix(0.04248971193415638,0,0,0.04248971193415638,36.498662551440326,0)" xlink:href="#ai"/><use transform="matrix(0.04248971193415638,0,0,0.04248971193415638,44.9966049382716,0)" xlink:href="#aj"/></g><path fill="#a9afb8" d="M185-189c-5-48-123-54-124 2 14 75 158 14 163 119 3 78-121 87-175 55-17-10-28-26-33-46l33-7c5 56 141 63 141-1 0-78-155-14-162-118-5-82 145-84 179-34 5 7 8 16 11 25" id="ak"/><path fill="#a9afb8" d="M84 4C-5 8 30-112 23-190h32v120c0 31 7 50 39 49 72-2 45-101 50-169h31l1 190h-30c-1-10 1-25-2-33-11 22-28 36-60 37" id="al"/><path fill="#a9afb8" d="M114-163C36-179 61-72 57 0H25l-1-190h30c1 12-1 29 2 39 6-27 23-49 58-41v29" id="am"/><path fill="#a9afb8" d="M141-36C126-15 110 5 73 4 37 3 15-17 15-53c-1-64 63-63 125-63 3-35-9-54-41-54-24 1-41 7-42 31l-33-3c5-37 33-52 76-52 45 0 72 20 72 64v82c-1 20 7 32 28 27v20c-31 9-61-2-59-35zM48-53c0 20 12 33 32 33 41-3 63-29 60-74-43 2-92-5-92 41" id="an"/><path fill="#a9afb8" d="M210-169c-67 3-38 105-44 169h-31v-121c0-29-5-50-35-48C34-165 62-65 56 0H25l-1-190h30c1 10-1 24 2 32 10-44 99-50 107 0 11-21 27-35 58-36 85-2 47 119 55 194h-31v-121c0-29-5-49-35-48" id="ao"/><g id="e"><use transform="matrix(0.04248971193415638,0,0,0.04248971193415638,0,0)" xlink:href="#ak"/><use transform="matrix(0.04248971193415638,0,0,0.04248971193415638,10.19753086419753,0)" xlink:href="#al"/><use transform="matrix(0.04248971193415638,0,0,0.04248971193415638,18.695473251028805,0)" xlink:href="#ah"/><use transform="matrix(0.04248971193415638,0,0,0.04248971193415638,27.193415637860078,0)" xlink:href="#am"/><use transform="matrix(0.04248971193415638,0,0,0.04248971193415638,32.249691358024684,0)" xlink:href="#an"/><use transform="matrix(0.04248971193415638,0,0,0.04248971193415638,40.74763374485596,0)" xlink:href="#ao"/><use transform="matrix(0.04248971193415638,0,0,0.04248971193415638,53.45205761316872,0)" xlink:href="#an"/><use transform="matrix(0.04248971193415638,0,0,0.04248971193415638,61.949999999999996,0)" xlink:href="#aj"/><use transform="matrix(0.04248971193415638,0,0,0.04248971193415638,70.44794238683127,0)" xlink:href="#ai"/><use transform="matrix(0.04248971193415638,0,0,0.04248971193415638,78.94588477366254,0)" xlink:href="#aj"/></g><path fill="#a9afb8" d="M32 76v-337h29V76H32" id="ap"/><use transform="matrix(0.04248971193415638,0,0,0.04248971193415638,0,0)" xlink:href="#ap" id="f"/><path fill="#a9afb8" d="M190 0L58-211 59 0H30v-248h39L202-35l-2-213h31V0h-41" id="aq"/><path fill="#a9afb8" d="M108 0H70L1-190h34L89-25l56-165h34" id="ar"/><g id="g"><use transform="matrix(0.04248971193415638,0,0,0.04248971193415638,0,0)" xlink:href="#aq"/><use transform="matrix(0.04248971193415638,0,0,0.04248971193415638,11.004835390946502,0)" xlink:href="#ag"/><use transform="matrix(0.04248971193415638,0,0,0.04248971193415638,19.502777777777776,0)" xlink:href="#ar"/><use transform="matrix(0.04248971193415638,0,0,0.04248971193415638,27.150925925925925,0)" xlink:href="#ai"/><use transform="matrix(0.04248971193415638,0,0,0.04248971193415638,35.6488683127572,0)" xlink:href="#ao"/><use transform="matrix(0.04248971193415638,0,0,0.04248971193415638,48.35329218106995,0)" xlink:href="#ah"/><use transform="matrix(0.04248971193415638,0,0,0.04248971193415638,56.851234567901244,0)" xlink:href="#ai"/><use transform="matrix(0.04248971193415638,0,0,0.04248971193415638,65.34917695473251,0)" xlink:href="#am"/></g><path fill="#a9afb8" d="M27 0v-27h64v-190l-56 39v-29l58-41h29v221h61V0H27" id="as"/><path fill="#a9afb8" d="M134-131c28 9 52 24 51 62-1 50-34 73-85 73S17-19 16-69c0-36 21-54 49-61-75-25-45-126 34-121 46 3 78 18 79 63 0 33-17 51-44 57zm-34-11c31 1 46-15 46-44 0-28-17-43-47-42-29 0-46 13-45 42 1 28 16 44 46 44zm1 122c35 0 51-18 51-52 0-30-18-46-53-46-33 0-51 17-51 47 0 34 19 51 53 51" id="at"/><path fill="#a9afb8" d="M68-38c1 34 0 65-14 84H32c9-13 17-26 17-46H33v-38h35" id="au"/><g id="h"><use transform="matrix(0.04248971193415638,0,0,0.04248971193415638,0,0)" xlink:href="#as"/><use transform="matrix(0.04248971193415638,0,0,0.04248971193415638,8.497942386831275,0)" xlink:href="#at"/><use transform="matrix(0.04248971193415638,0,0,0.04248971193415638,16.99588477366255,0)" xlink:href="#au"/></g><path fill="#a9afb8" d="M101-251c82-7 93 87 43 132L82-64C71-53 59-42 53-27h129V0H18c2-99 128-94 128-182 0-28-16-43-45-43s-46 15-49 41l-32-3c6-41 34-60 81-64" id="av"/><path fill="#a9afb8" d="M101-251c68 0 85 55 85 127S166 4 100 4C33 4 14-52 14-124c0-73 17-127 87-127zm-1 229c47 0 54-49 54-102s-4-102-53-102c-51 0-55 48-55 102 0 53 5 102 54 102" id="aw"/><g id="i"><use transform="matrix(0.04248971193415638,0,0,0.04248971193415638,0,0)" xlink:href="#av"/><use transform="matrix(0.04248971193415638,0,0,0.04248971193415638,8.497942386831275,0)" xlink:href="#aw"/><use transform="matrix(0.04248971193415638,0,0,0.04248971193415638,16.99588477366255,0)" xlink:href="#av"/><use transform="matrix(0.04248971193415638,0,0,0.04248971193415638,25.493827160493822,0)" xlink:href="#aw"/></g><path fill="#333" d="M84 4C-5 8 30-112 23-190h32v120c0 31 7 50 39 49 72-2 45-101 50-169h31l1 190h-30c-1-10 1-25-2-33-11 22-28 36-60 37" id="ax"/><path fill="#333" d="M117-194c89-4 53 116 60 194h-32v-121c0-31-8-49-39-48C34-167 62-67 57 0H25l-1-190h30c1 10-1 24 2 32 11-22 29-35 61-36" id="ay"/><path fill="#333" d="M24-231v-30h32v30H24zM24 0v-190h32V0H24" id="az"/><path fill="#333" d="M108 0H70L1-190h34L89-25l56-165h34" id="aA"/><path fill="#333" d="M100-194c63 0 86 42 84 106H49c0 40 14 67 53 68 26 1 43-12 49-29l28 8c-11 28-37 45-77 45C44 4 14-33 15-96c1-61 26-98 85-98zm52 81c6-60-76-77-97-28-3 7-6 17-6 28h103" id="aB"/><path fill="#333" d="M114-163C36-179 61-72 57 0H25l-1-190h30c1 12-1 29 2 39 6-27 23-49 58-41v29" id="aC"/><path fill="#333" d="M135-143c-3-34-86-38-87 0 15 53 115 12 119 90S17 21 10-45l28-5c4 36 97 45 98 0-10-56-113-15-118-90-4-57 82-63 122-42 12 7 21 19 24 35" id="aD"/><path fill="#333" d="M59-47c-2 24 18 29 38 22v24C64 9 27 4 27-40v-127H5v-23h24l9-43h21v43h35v23H59v120" id="aE"/><path fill="#333" d="M179-190L93 31C79 59 56 82 12 73V49c39 6 53-20 64-50L1-190h34L92-34l54-156h33" id="aF"/><g id="j"><use transform="matrix(0.05,0,0,0.05,0,0)" xlink:href="#ax"/><use transform="matrix(0.05,0,0,0.05,10,0)" xlink:href="#ay"/><use transform="matrix(0.05,0,0,0.05,20,0)" xlink:href="#az"/><use transform="matrix(0.05,0,0,0.05,23.95,0)" xlink:href="#aA"/><use transform="matrix(0.05,0,0,0.05,32.95,0)" xlink:href="#aB"/><use transform="matrix(0.05,0,0,0.05,42.95,0)" xlink:href="#aC"/><use transform="matrix(0.05,0,0,0.05,48.900000000000006,0)" xlink:href="#aD"/><use transform="matrix(0.05,0,0,0.05,57.900000000000006,0)" xlink:href="#az"/><use transform="matrix(0.05,0,0,0.05,61.85,0)" xlink:href="#aE"/><use transform="matrix(0.05,0,0,0.05,66.85000000000001,0)" xlink:href="#aF"/></g><path d="M24-248c93 1 206-16 204 79-1 75-69 88-152 82V0H24v-248zm52 121c47 0 100 7 100-41 0-47-54-39-100-39v80" id="aG"/><path d="M195 0l-88-114-31 24V0H24v-248h52v113l112-113h60L142-143 257 0h-62" id="aH"/><g id="k"><use transform="matrix(0.05,0,0,0.05,0,0)" xlink:href="#aG"/><use transform="matrix(0.05,0,0,0.05,12,0)" xlink:href="#aH"/></g><path d="M85 4C-2 5 27-109 22-190h50c7 57-23 150 33 157 60-5 35-97 40-157h50l1 190h-47c-2-12 1-28-3-38-12 25-28 42-61 42" id="aI"/><path d="M135-194c87-1 58 113 63 194h-50c-7-57 23-157-34-157-59 0-34 97-39 157H25l-1-190h47c2 12-1 28 3 38 12-26 28-41 61-42" id="aJ"/><path d="M25-224v-37h50v37H25zM25 0v-190h50V0H25" id="aK"/><path d="M128 0H69L1-190h53L99-40l48-150h52" id="aL"/><path d="M185-48c-13 30-37 53-82 52C43 2 14-33 14-96s30-98 90-98c62 0 83 45 84 108H66c0 31 8 55 39 56 18 0 30-7 34-22zm-45-69c5-46-57-63-70-21-2 6-4 13-4 21h74" id="aM"/><path d="M135-150c-39-12-60 13-60 57V0H25l-1-190h47c2 13-1 29 3 40 6-28 27-53 61-41v41" id="aN"/><path d="M137-138c1-29-70-34-71-4 15 46 118 7 119 86 1 83-164 76-172 9l43-7c4 19 20 25 44 25 33 8 57-30 24-41C81-84 22-81 20-136c-2-80 154-74 161-7" id="aO"/><path d="M115-3C79 11 28 4 28-45v-112H4v-33h27l15-45h31v45h36v33H77v99c-1 23 16 31 38 25v30" id="aP"/><path d="M123 10C108 53 80 86 19 72V37c35 8 53-11 59-39L3-190h52l48 148c12-52 28-100 44-148h51" id="aQ"/><g id="l"><use transform="matrix(0.05,0,0,0.05,0,0)" xlink:href="#aI"/><use transform="matrix(0.05,0,0,0.05,10.950000000000001,0)" xlink:href="#aJ"/><use transform="matrix(0.05,0,0,0.05,21.900000000000002,0)" xlink:href="#aK"/><use transform="matrix(0.05,0,0,0.05,26.900000000000002,0)" xlink:href="#aL"/><use transform="matrix(0.05,0,0,0.05,36.900000000000006,0)" xlink:href="#aM"/><use transform="matrix(0.05,0,0,0.05,46.900000000000006,0)" xlink:href="#aN"/><use transform="matrix(0.05,0,0,0.05,53.900000000000006,0)" xlink:href="#aO"/><use transform="matrix(0.05,0,0,0.05,63.900000000000006,0)" xlink:href="#aK"/><use transform="matrix(0.05,0,0,0.05,68.9,0)" xlink:href="#aP"/><use transform="matrix(0.05,0,0,0.05,74.85000000000001,0)" xlink:href="#aQ"/></g><path d="M24 0v-248h52V0H24" id="aR"/><path d="M24-248c120-7 223 5 221 122C244-46 201 0 124 0H24v-248zM76-40c74 7 117-18 117-86 0-67-45-88-117-82v168" id="aS"/><g id="m"><use transform="matrix(0.05,0,0,0.05,0,0)" xlink:href="#aR"/><use transform="matrix(0.05,0,0,0.05,5,0)" xlink:href="#aS"/></g><path d="M220-157c-53 9-28 100-34 157h-49v-107c1-27-5-49-29-50C55-147 81-57 75 0H25l-1-190h47c2 12-1 28 3 38 10-53 101-56 108 0 13-22 24-43 59-42 82 1 51 116 57 194h-49v-107c-1-25-5-48-29-50" id="aT"/><path d="M135-194c52 0 70 43 70 98 0 56-19 99-73 100-30 1-46-15-58-35L72 0H24l1-261h50v104c11-23 29-37 60-37zM114-30c31 0 40-27 40-66 0-37-7-63-39-63s-41 28-41 65c0 36 8 64 40 64" id="aU"/><g id="n"><use transform="matrix(0.05,0,0,0.05,0,0)" xlink:href="#aJ"/><use transform="matrix(0.05,0,0,0.05,10.950000000000001,0)" xlink:href="#aI"/><use transform="matrix(0.05,0,0,0.05,21.900000000000002,0)" xlink:href="#aT"/><use transform="matrix(0.05,0,0,0.05,37.900000000000006,0)" xlink:href="#aU"/><use transform="matrix(0.05,0,0,0.05,48.85000000000001,0)" xlink:href="#aM"/><use transform="matrix(0.05,0,0,0.05,58.85,0)" xlink:href="#aN"/></g><path fill="#333" d="M141-36C126-15 110 5 73 4 37 3 15-17 15-53c-1-64 63-63 125-63 3-35-9-54-41-54-24 1-41 7-42 31l-33-3c5-37 33-52 76-52 45 0 72 20 72 64v82c-1 20 7 32 28 27v20c-31 9-61-2-59-35zM48-53c0 20 12 33 32 33 41-3 63-29 60-74-43 2-92-5-92 41" id="aV"/><path fill="#333" d="M210-169c-67 3-38 105-44 169h-31v-121c0-29-5-50-35-48C34-165 62-65 56 0H25l-1-190h30c1 10-1 24 2 32 10-44 99-50 107 0 11-21 27-35 58-36 85-2 47 119 55 194h-31v-121c0-29-5-49-35-48" id="aW"/><g id="o"><use transform="matrix(0.05,0,0,0.05,0,0)" xlink:href="#ay"/><use transform="matrix(0.05,0,0,0.05,10,0)" xlink:href="#aV"/><use transform="matrix(0.05,0,0,0.05,20,0)" xlink:href="#aW"/><use transform="matrix(0.05,0,0,0.05,34.95,0)" xlink:href="#aB"/></g><path fill="#333" d="M141 0L90-78 38 0H4l68-98-65-92h35l48 74 47-74h35l-64 92 68 98h-35" id="aX"/><g id="p"><use transform="matrix(0.05,0,0,0.05,0,0)" xlink:href="#aE"/><use transform="matrix(0.05,0,0,0.05,5,0)" xlink:href="#aB"/><use transform="matrix(0.05,0,0,0.05,15,0)" xlink:href="#aX"/><use transform="matrix(0.05,0,0,0.05,24,0)" xlink:href="#aE"/></g><g id="q"><use transform="matrix(0.05,0,0,0.05,0,0)" xlink:href="#ax"/><use transform="matrix(0.05,0,0,0.05,10,0)" xlink:href="#ay"/><use transform="matrix(0.05,0,0,0.05,20,0)" xlink:href="#az"/><use transform="matrix(0.05,0,0,0.05,23.95,0)" xlink:href="#aE"/></g><path fill="#333" d="M115-194c53 0 69 39 70 98 0 66-23 100-70 100C84 3 66-7 56-30L54 0H23l1-261h32v101c10-23 28-34 59-34zm-8 174c40 0 45-34 45-75 0-40-5-75-45-74-42 0-51 32-51 76 0 43 10 73 51 73" id="aY"/><g id="r"><use transform="matrix(0.05,0,0,0.05,0,0)" xlink:href="#ay"/><use transform="matrix(0.05,0,0,0.05,10,0)" xlink:href="#ax"/><use transform="matrix(0.05,0,0,0.05,20,0)" xlink:href="#aW"/><use transform="matrix(0.05,0,0,0.05,34.95,0)" xlink:href="#aY"/><use transform="matrix(0.05,0,0,0.05,44.95,0)" xlink:href="#aB"/><use transform="matrix(0.05,0,0,0.05,54.95,0)" xlink:href="#aC"/></g><g id="s"><use transform="matrix(0.05,0,0,0.05,0,0)" xlink:href="#ay"/><use transform="matrix(0.05,0,0,0.05,10,0)" xlink:href="#ax"/><use transform="matrix(0.05,0,0,0.05,20,0)" xlink:href="#aW"/><use transform="matrix(0.05,0,0,0.05,34.95,0)" xlink:href="#aY"/><use transform="matrix(0.05,0,0,0.05,44.95,0)" xlink:href="#aB"/><use transform="matrix(0.05,0,0,0.05,54.95,0)" xlink:href="#aC"/></g><g id="t"><use transform="matrix(0.05,0,0,0.05,0,0)" xlink:href="#aD"/><use transform="matrix(0.05,0,0,0.05,9,0)" xlink:href="#aE"/><use transform="matrix(0.05,0,0,0.05,14,0)" xlink:href="#aC"/><use transform="matrix(0.05,0,0,0.05,19.95,0)" xlink:href="#aB"/><use transform="matrix(0.05,0,0,0.05,29.950000000000003,0)" xlink:href="#aB"/><use transform="matrix(0.05,0,0,0.05,39.95,0)" xlink:href="#aE"/></g><g id="u"><use transform="matrix(0.05,0,0,0.05,0,0)" xlink:href="#ay"/><use transform="matrix(0.05,0,0,0.05,10,0)" xlink:href="#aV"/><use transform="matrix(0.05,0,0,0.05,20,0)" xlink:href="#aW"/><use transform="matrix(0.05,0,0,0.05,34.95,0)" xlink:href="#aB"/></g><g id="v"><use transform="matrix(0.05,0,0,0.05,0,0)" xlink:href="#aD"/><use transform="matrix(0.05,0,0,0.05,9,0)" xlink:href="#ax"/><use transform="matrix(0.05,0,0,0.05,19,0)" xlink:href="#aY"/><use transform="matrix(0.05,0,0,0.05,29,0)" xlink:href="#ax"/><use transform="matrix(0.05,0,0,0.05,39,0)" xlink:href="#aC"/><use transform="matrix(0.05,0,0,0.05,44.95,0)" xlink:href="#aY"/></g><path fill="#333" d="M96-169c-40 0-48 33-48 73s9 75 48 75c24 0 41-14 43-38l32 2c-6 37-31 61-74 61-59 0-76-41-82-99-10-93 101-131 147-64 4 7 5 14 7 22l-32 3c-4-21-16-35-41-35" id="aZ"/><g id="w"><use transform="matrix(0.05,0,0,0.05,0,0)" xlink:href="#aZ"/><use transform="matrix(0.05,0,0,0.05,9,0)" xlink:href="#az"/><use transform="matrix(0.05,0,0,0.05,12.949999999999998,0)" xlink:href="#aE"/><use transform="matrix(0.05,0,0,0.05,17.95,0)" xlink:href="#aF"/></g><g id="x"><use transform="matrix(0.05,0,0,0.05,0,0)" xlink:href="#aD"/><use transform="matrix(0.05,0,0,0.05,9,0)" xlink:href="#aE"/><use transform="matrix(0.05,0,0,0.05,14,0)" xlink:href="#aV"/><use transform="matrix(0.05,0,0,0.05,24,0)" xlink:href="#aE"/><use transform="matrix(0.05,0,0,0.05,29,0)" xlink:href="#aB"/></g><path d="M96-169c-40 0-48 33-48 73s9 75 48 75c24 0 41-14 43-38l32 2c-6 37-31 61-74 61-59 0-76-41-82-99-10-93 101-131 147-64 4 7 5 14 7 22l-32 3c-4-21-16-35-41-35" id="ba"/><path d="M100-194c62-1 85 37 85 99 1 63-27 99-86 99S16-35 15-95c0-66 28-99 85-99zM99-20c44 1 53-31 53-75 0-43-8-75-51-75s-53 32-53 75 10 74 51 75" id="bb"/><path d="M85-194c31 0 48 13 60 33l-1-100h32l1 261h-30c-2-10 0-23-3-31C134-8 116 4 85 4 32 4 16-35 15-94c0-66 23-100 70-100zm9 24c-40 0-46 34-46 75 0 40 6 74 45 74 42 0 51-32 51-76 0-42-9-74-50-73" id="bc"/><path d="M100-194c63 0 86 42 84 106H49c0 40 14 67 53 68 26 1 43-12 49-29l28 8c-11 28-37 45-77 45C44 4 14-33 15-96c1-61 26-98 85-98zm52 81c6-60-76-77-97-28-3 7-6 17-6 28h103" id="bd"/><g id="y"><use transform="matrix(0.05,0,0,0.05,0,0)" xlink:href="#ba"/><use transform="matrix(0.05,0,0,0.05,9,0)" xlink:href="#bb"/><use transform="matrix(0.05,0,0,0.05,19,0)" xlink:href="#bc"/><use transform="matrix(0.05,0,0,0.05,29,0)" xlink:href="#bd"/></g><path d="M84 4C-5 8 30-112 23-190h32v120c0 31 7 50 39 49 72-2 45-101 50-169h31l1 190h-30c-1-10 1-25-2-33-11 22-28 36-60 37" id="be"/><path d="M117-194c89-4 53 116 60 194h-32v-121c0-31-8-49-39-48C34-167 62-67 57 0H25l-1-190h30c1 10-1 24 2 32 11-22 29-35 61-36" id="bf"/><path d="M59-47c-2 24 18 29 38 22v24C64 9 27 4 27-40v-127H5v-23h24l9-43h21v43h35v23H59v120" id="bg"/><path d="M114-163C36-179 61-72 57 0H25l-1-190h30c1 12-1 29 2 39 6-27 23-49 58-41v29" id="bh"/><path d="M179-190L93 31C79 59 56 82 12 73V49c39 6 53-20 64-50L1-190h34L92-34l54-156h33" id="bi"/><g id="z"><use transform="matrix(0.05,0,0,0.05,0,0)" xlink:href="#ba"/><use transform="matrix(0.05,0,0,0.05,9,0)" xlink:href="#bb"/><use transform="matrix(0.05,0,0,0.05,19,0)" xlink:href="#be"/><use transform="matrix(0.05,0,0,0.05,29,0)" xlink:href="#bf"/><use transform="matrix(0.05,0,0,0.05,39,0)" xlink:href="#bg"/><use transform="matrix(0.05,0,0,0.05,44,0)" xlink:href="#bh"/><use transform="matrix(0.05,0,0,0.05,49.95,0)" xlink:href="#bi"/></g><path fill="#333" d="M24-231v-30h32v30H24zM-9 49c24 4 33-6 33-30v-209h32V24c2 40-23 58-65 49V49" id="bj"/><g id="A"><use transform="matrix(0.05,0,0,0.05,0,0)" xlink:href="#aD"/><use transform="matrix(0.05,0,0,0.05,9,0)" xlink:href="#ax"/><use transform="matrix(0.05,0,0,0.05,19,0)" xlink:href="#aY"/><use transform="matrix(0.05,0,0,0.05,29,0)" xlink:href="#bj"/><use transform="matrix(0.05,0,0,0.05,32.95,0)" xlink:href="#aB"/><use transform="matrix(0.05,0,0,0.05,42.95,0)" xlink:href="#aZ"/><use transform="matrix(0.05,0,0,0.05,51.95,0)" xlink:href="#aE"/></g><path d="M25-224v-37h50v37H25zM75 22c2 45-34 59-81 51V38c22 5 31-5 31-27v-201h50V22" id="bk"/><path d="M190-63c-7 42-38 67-86 67-59 0-84-38-90-98-12-110 154-137 174-36l-49 2c-2-19-15-32-35-32-30 0-35 28-38 64-6 74 65 87 74 30" id="bl"/><g id="B"><use transform="matrix(0.05,0,0,0.05,0,0)" xlink:href="#aO"/><use transform="matrix(0.05,0,0,0.05,10,0)" xlink:href="#aI"/><use transform="matrix(0.05,0,0,0.05,20.950000000000003,0)" xlink:href="#aU"/><use transform="matrix(0.05,0,0,0.05,31.900000000000006,0)" xlink:href="#bk"/><use transform="matrix(0.05,0,0,0.05,36.900000000000006,0)" xlink:href="#aM"/><use transform="matrix(0.05,0,0,0.05,46.900000000000006,0)" xlink:href="#bl"/><use transform="matrix(0.05,0,0,0.05,56.900000000000006,0)" xlink:href="#aP"/></g><g id="C"><use transform="matrix(0.05,0,0,0.05,0,0)" xlink:href="#aD"/><use transform="matrix(0.05,0,0,0.05,9,0)" xlink:href="#ax"/><use transform="matrix(0.05,0,0,0.05,19,0)" xlink:href="#aY"/><use transform="matrix(0.05,0,0,0.05,29,0)" xlink:href="#bj"/><use transform="matrix(0.05,0,0,0.05,32.95,0)" xlink:href="#aB"/><use transform="matrix(0.05,0,0,0.05,42.95,0)" xlink:href="#aZ"/><use transform="matrix(0.05,0,0,0.05,51.95,0)" xlink:href="#aE"/></g><g id="D"><use transform="matrix(0.05,0,0,0.05,0,0)" xlink:href="#aE"/><use transform="matrix(0.05,0,0,0.05,5,0)" xlink:href="#aB"/><use transform="matrix(0.05,0,0,0.05,15,0)" xlink:href="#aX"/><use transform="matrix(0.05,0,0,0.05,24,0)" xlink:href="#aE"/></g><path fill="#333" d="M177-190C167-65 218 103 67 71c-23-6-38-20-44-43l32-5c15 47 100 32 89-28v-30C133-14 115 1 83 1 29 1 15-40 15-95c0-56 16-97 71-98 29-1 48 16 59 35 1-10 0-23 2-32h30zM94-22c36 0 50-32 50-73 0-42-14-75-50-75-39 0-46 34-46 75s6 73 46 73" id="bm"/><path fill="#333" d="M100-194c62-1 85 37 85 99 1 63-27 99-86 99S16-35 15-95c0-66 28-99 85-99zM99-20c44 1 53-31 53-75 0-43-8-75-51-75s-53 32-53 75 10 74 51 75" id="bn"/><g id="E"><use transform="matrix(0.05,0,0,0.05,0,0)" xlink:href="#aZ"/><use transform="matrix(0.05,0,0,0.05,9,0)" xlink:href="#aV"/><use transform="matrix(0.05,0,0,0.05,19,0)" xlink:href="#aE"/><use transform="matrix(0.05,0,0,0.05,24,0)" xlink:href="#aB"/><use transform="matrix(0.05,0,0,0.05,34,0)" xlink:href="#bm"/><use transform="matrix(0.05,0,0,0.05,44,0)" xlink:href="#bn"/><use transform="matrix(0.05,0,0,0.05,54,0)" xlink:href="#aC"/><use transform="matrix(0.05,0,0,0.05,59.95,0)" xlink:href="#aF"/></g><path fill="#333" d="M85-194c31 0 48 13 60 33l-1-100h32l1 261h-30c-2-10 0-23-3-31C134-8 116 4 85 4 32 4 16-35 15-94c0-66 23-100 70-100zm9 24c-40 0-46 34-46 75 0 40 6 74 45 74 42 0 51-32 51-76 0-42-9-74-50-73" id="bo"/><g id="F"><use transform="matrix(0.05,0,0,0.05,0,0)" xlink:href="#aD"/><use transform="matrix(0.05,0,0,0.05,9,0)" xlink:href="#aE"/><use transform="matrix(0.05,0,0,0.05,14,0)" xlink:href="#ax"/><use transform="matrix(0.05,0,0,0.05,24,0)" xlink:href="#bo"/><use transform="matrix(0.05,0,0,0.05,34,0)" xlink:href="#aB"/><use transform="matrix(0.05,0,0,0.05,44,0)" xlink:href="#ay"/><use transform="matrix(0.05,0,0,0.05,54,0)" xlink:href="#aE"/></g><g id="G"><use transform="matrix(0.05,0,0,0.05,0,0)" xlink:href="#aD"/><use transform="matrix(0.05,0,0,0.05,9,0)" xlink:href="#aE"/><use transform="matrix(0.05,0,0,0.05,14,0)" xlink:href="#ax"/><use transform="matrix(0.05,0,0,0.05,24,0)" xlink:href="#bo"/><use transform="matrix(0.05,0,0,0.05,34,0)" xlink:href="#aB"/><use transform="matrix(0.05,0,0,0.05,44,0)" xlink:href="#ay"/><use transform="matrix(0.05,0,0,0.05,54,0)" xlink:href="#aE"/></g><path d="M88-194c31-1 46 15 58 34l-1-101h50l1 261h-48c-2-10 0-23-3-31C134-8 116 4 84 4 32 4 16-41 15-95c0-56 19-97 73-99zm17 164c33 0 40-30 41-66 1-37-9-64-41-64s-38 30-39 65c0 43 13 65 39 65" id="bp"/><g id="H"><use transform="matrix(0.05,0,0,0.05,0,0)" xlink:href="#aO"/><use transform="matrix(0.05,0,0,0.05,10,0)" xlink:href="#aP"/><use transform="matrix(0.05,0,0,0.05,15.949999999999998,0)" xlink:href="#aI"/><use transform="matrix(0.05,0,0,0.05,26.899999999999995,0)" xlink:href="#bp"/><use transform="matrix(0.05,0,0,0.05,37.85,0)" xlink:href="#aM"/><use transform="matrix(0.05,0,0,0.05,47.85,0)" xlink:href="#aJ"/><use transform="matrix(0.05,0,0,0.05,58.800000000000004,0)" xlink:href="#aP"/></g><path fill="#333" d="M101-234c-31-9-42 10-38 44h38v23H63V0H32v-167H5v-23h27c-7-52 17-82 69-68v24" id="bq"/><g id="I"><use transform="matrix(0.05,0,0,0.05,0,0)" xlink:href="#bq"/><use transform="matrix(0.05,0,0,0.05,5,0)" xlink:href="#az"/><use transform="matrix(0.05,0,0,0.05,8.95,0)" xlink:href="#aC"/><use transform="matrix(0.05,0,0,0.05,14.899999999999999,0)" xlink:href="#aD"/><use transform="matrix(0.05,0,0,0.05,23.9,0)" xlink:href="#aE"/></g><path fill="#333" d="M24 0v-261h32V0H24" id="br"/><g id="J"><use transform="matrix(0.05,0,0,0.05,0,0)" xlink:href="#br"/><use transform="matrix(0.05,0,0,0.05,3.95,0)" xlink:href="#aV"/><use transform="matrix(0.05,0,0,0.05,13.949999999999998,0)" xlink:href="#aD"/><use transform="matrix(0.05,0,0,0.05,22.95,0)" xlink:href="#aE"/></g><g id="K"><use transform="matrix(0.05,0,0,0.05,0,0)" xlink:href="#bo"/><use transform="matrix(0.05,0,0,0.05,10,0)" xlink:href="#aV"/><use transform="matrix(0.05,0,0,0.05,20,0)" xlink:href="#aE"/><use transform="matrix(0.05,0,0,0.05,25,0)" xlink:href="#aB"/></g><g id="L"><use transform="matrix(0.05,0,0,0.05,0,0)" xlink:href="#bn"/><use transform="matrix(0.05,0,0,0.05,10,0)" xlink:href="#bq"/></g><path fill="#333" d="M106-169C34-169 62-67 57 0H25v-261h32l-1 103c12-21 28-36 61-36 89 0 53 116 60 194h-32v-121c2-32-8-49-39-48" id="bs"/><g id="M"><use transform="matrix(0.05,0,0,0.05,0,0)" xlink:href="#aY"/><use transform="matrix(0.05,0,0,0.05,10,0)" xlink:href="#az"/><use transform="matrix(0.05,0,0,0.05,13.949999999999998,0)" xlink:href="#aC"/><use transform="matrix(0.05,0,0,0.05,19.9,0)" xlink:href="#aE"/><use transform="matrix(0.05,0,0,0.05,24.9,0)" xlink:href="#bs"/></g><g id="N"><use transform="matrix(0.05,0,0,0.05,0,0)" xlink:href="#bo"/><use transform="matrix(0.05,0,0,0.05,10,0)" xlink:href="#aV"/><use transform="matrix(0.05,0,0,0.05,20,0)" xlink:href="#aE"/><use transform="matrix(0.05,0,0,0.05,25,0)" xlink:href="#aB"/></g><g id="O"><use transform="matrix(0.05,0,0,0.05,0,0)" xlink:href="#aE"/><use transform="matrix(0.05,0,0,0.05,5,0)" xlink:href="#aB"/><use transform="matrix(0.05,0,0,0.05,15,0)" xlink:href="#aV"/><use transform="matrix(0.05,0,0,0.05,25,0)" xlink:href="#aZ"/><use transform="matrix(0.05,0,0,0.05,34,0)" xlink:href="#bs"/><use transform="matrix(0.05,0,0,0.05,44,0)" xlink:href="#aB"/><use transform="matrix(0.05,0,0,0.05,54,0)" xlink:href="#aC"/></g><path d="M133-34C117-15 103 5 69 4 32 3 11-16 11-54c-1-60 55-63 116-61 1-26-3-47-28-47-18 1-26 9-28 27l-52-2c7-38 36-58 82-57s74 22 75 68l1 82c-1 14 12 18 25 15v27c-30 8-71 5-69-32zm-48 3c29 0 43-24 42-57-32 0-66-3-65 30 0 17 8 27 23 27" id="bt"/><path d="M114-157C55-157 80-60 75 0H25v-261h50l-1 109c12-26 28-41 61-42 86-1 58 113 63 194h-50c-7-57 23-157-34-157" id="bu"/><g id="P"><use transform="matrix(0.05,0,0,0.05,0,0)" xlink:href="#aP"/><use transform="matrix(0.05,0,0,0.05,5.95,0)" xlink:href="#aM"/><use transform="matrix(0.05,0,0,0.05,15.949999999999998,0)" xlink:href="#bt"/><use transform="matrix(0.05,0,0,0.05,25.950000000000003,0)" xlink:href="#bl"/><use transform="matrix(0.05,0,0,0.05,35.95,0)" xlink:href="#bu"/><use transform="matrix(0.05,0,0,0.05,46.900000000000006,0)" xlink:href="#aM"/><use transform="matrix(0.05,0,0,0.05,56.900000000000006,0)" xlink:href="#aN"/></g><g id="Q"><use transform="matrix(0.05,0,0,0.05,0,0)" xlink:href="#aE"/><use transform="matrix(0.05,0,0,0.05,5,0)" xlink:href="#aV"/><use transform="matrix(0.05,0,0,0.05,15,0)" xlink:href="#ax"/><use transform="matrix(0.05,0,0,0.05,25,0)" xlink:href="#bm"/><use transform="matrix(0.05,0,0,0.05,35,0)" xlink:href="#bs"/><use transform="matrix(0.05,0,0,0.05,45,0)" xlink:href="#aE"/></g></defs></g></svg>